<svg xmlns="http://www.w3.org/2000/svg" width="128" height="80" viewBox="0 0 128 80" fill="none"><rect width="128" height="80" rx="12" fill="#0b0f14"/><rect x="22" y="40" width="8" height="8" fill="#38bdf8"/><rect x="32" y="40" width="8" height="8" fill="#38bdf8"/><rect x="42" y="40" width="8" height="8" fill="#38bdf8"/><rect x="52" y="40" width="8" height="8" fill="#38bdf8"/><rect x="32" y="30" width="8" height="8" fill="#38bdf8"/><rect x="42" y="30" width="8" height="8" fill="#38bdf8"/><rect x="52" y="30" width="8" height="8" fill="#38bdf8"/><path d="M20 56h74c-2.5 6-8.5 8-16 8H36c-8 0-14-6-16-8z" fill="#0ea5e9"/><path d="M104 38c-4.5-2-8 1-8 4 0 1.2.4 2.3 1.1 3.2 1.6 2 2.4 4.4 1.9 6.8 4.9-1.1 9-4.8 8.9-9.7 0-2.4-1.5-3.8-4-4.3h-.9z" fill="#38bdf8"/></svg>
