<svg xmlns="http://www.w3.org/2000/svg" width="128" height="80" viewBox="0 0 128 80" fill="none"><rect width="128" height="80" rx="12" fill="#0a0a0a"/><path fill-rule="evenodd" clip-rule="evenodd" d="M64 16c-13.255 0-24 10.745-24 24 0 10.602 6.875 19.6 16.406 22.776 1.2.222 1.64-.522 1.64-1.16 0-.572-.02-2.088-.032-4.1-6.676 1.452-8.082-3.22-8.082-3.22-1.092-2.776-2.668-3.516-2.668-3.516-2.18-1.492.164-1.464.164-1.464 2.412.168 3.68 2.476 3.68 2.476 2.144 3.672 5.624 2.612 6.996 1.996.218-1.552.84-2.612 1.528-3.212-5.328-.604-10.932-2.664-10.932-11.852 0-2.62.936-4.76 2.468-6.44-.248-.604-1.068-3.04.232-6.332 0 0 2.012-.644 6.592 2.46 1.912-.532 3.964-.8 6.004-.808 2.04.008 4.092.276 6.004.808 4.58-3.104 6.592-2.46 6.592-2.46 1.3 3.292.48 5.728.236 6.332 1.532 1.68 2.468 3.82 2.468 6.44 0 9.212-5.612 11.24-10.956 11.836.86.744 1.636 2.208 1.636 4.452 0 3.212-.028 5.8-.028 6.592 0 .64.432 1.392 1.656 1.156C81.132 59.59 88 50.6 88 40c0-13.255-10.745-24-24-24z" fill="#fff"/></svg>
